{
  "accessors": [
    {
      "bufferView": 0,
      "byteOffset": 0,
      "componentType": 5123,
      "count": 1098,
      "max": [
        1097.0
      ],
      "min": [
        0.0
      ],
      "name": "buffer-0-accessor-indices-buffer-0-mesh-0",
      "type": "SCALAR"
    },
    {
      "bufferView": 2,
      "byteOffset": 0,
      "componentType": 5126,
      "count": 1098,
      "max": [
        2.287566900253296,
        10.037018775939941,
        4.695563793182373
      ],
      "min": [
        -2.287566900253296,
        -0.03882800042629242,
        -4.045249938964844
      ],
      "name": "buffer-0-accessor-position-buffer-0-mesh-0",
      "type": "VEC3"
    },
    {
      "bufferView": 2,
      "byteOffset": 13176,
      "componentType": 5126,
      "count": 1098,
      "max": [
        1.0,
        0.9988999962806702,
        0.9970999956130981
      ],
      "min": [
        -1.0,
        -0.9990000128746033,
        -1.0
      ],
      "name": "buffer-0-accessor-normal-buffer-0-mesh-0",
      "type": "VEC3"
    },
    {
      "bufferView": 1,
      "byteOffset": 0,
      "componentType": 5126,
      "count": 0,
      "max": [
        0.0,
        0.0
      ],
      "min": [
        0.0,
        0.0
      ],
      "name": "buffer-0-accessor-texcoord-buffer-0-mesh-0",
      "type": "VEC2"
    },
    {
      "bufferView": 3,
      "byteOffset": 0,
      "componentType": 5126,
      "count": 0,
      "max": [
        0.0,
        0.0,
        0.0,
        0.0
      ],
      "min": [
        0.0,
        0.0,
        0.0,
        0.0
      ],
      "name": "buffer-0-accessor-color-buffer-0-mesh-0",
      "type": "VEC4"
    },
    {
      "bufferView": 0,
      "byteOffset": 2196,
      "componentType": 5123,
      "count": 174,
      "max": [
        173.0
      ],
      "min": [
        0.0
      ],
      "name": "buffer-0-accessor-indices-buffer-0-mesh-0",
      "type": "SCALAR"
    },
    {
      "bufferView": 2,
      "byteOffset": 26352,
      "componentType": 5126,
      "count": 174,
      "max": [
        0.7452859878540039,
        8.38959789276123,
        0.0
      ],
      "min": [
        -0.7452859878540039,
        0.0,
        -2.7149569988250732
      ],
      "name": "buffer-0-accessor-position-buffer-0-mesh-0",
      "type": "VEC3"
    },
    {
      "bufferView": 2,
      "byteOffset": 28440,
      "componentType": 5126,
      "count": 174,
      "max": [
        0.9732999801635742,
        0.9132999777793884,
        0.9240000247955322
      ],
      "min": [
        -0.9732999801635742,
        -0.9132999777793884,
        -0.9240000247955322
      ],
      "name": "buffer-0-accessor-normal-buffer-0-mesh-0",
      "type": "VEC3"
    },
    {
      "bufferView": 1,
      "byteOffset": 0,
      "componentType": 5126,
      "count": 0,
      "max": [
        0.0,
        0.0
      ],
      "min": [
        0.0,
        0.0
      ],
      "name": "buffer-0-accessor-texcoord-buffer-0-mesh-0",
      "type": "VEC2"
    },
    {
      "bufferView": 3,
      "byteOffset": 0,
      "componentType": 5126,
      "count": 0,
      "max": [
        0.0,
        0.0,
        0.0,
        0.0
      ],
      "min": [
        0.0,
        0.0,
        0.0,
        0.0
      ],
      "name": "buffer-0-accessor-color-buffer-0-mesh-0",
      "type": "VEC4"
    },
    {
      "bufferView": 0,
      "byteOffset": 2544,
      "componentType": 5123,
      "count": 168,
      "max": [
        167.0
      ],
      "min": [
        0.0
      ],
      "name": "buffer-0-accessor-indices-buffer-0-mesh-0",
      "type": "SCALAR"
    },
    {
      "bufferView": 2,
      "byteOffset": 30528,
      "componentType": 5126,
      "count": 168,
      "max": [
        1.898197054862976,
        7.612778186798096,
        4.695563793182373
      ],
      "min": [
        -1.6149280071258545,
        -0.03882800042629242,
        -4.266965866088867
      ],
      "name": "buffer-0-accessor-position-buffer-0-mesh-0",
      "type": "VEC3"
    },
    {
      "bufferView": 2,
      "byteOffset": 32544,
      "componentType": 5126,
      "count": 168,
      "max": [
        0.26930001378059387,
        0.5130000114440918,
        0.7982000112533569
      ],
      "min": [
        -0.26930001378059387,
        -1.0,
        -0.9359999895095825
      ],
      "name": "buffer-0-accessor-normal-buffer-0-mesh-0",
      "type": "VEC3"
    },
    {
      "bufferView": 1,
      "byteOffset": 0,
      "componentType": 5126,
      "count": 0,
      "max": [
        0.0,
        0.0
      ],
      "min": [
        0.0,
        0.0
      ],
      "name": "buffer-0-accessor-texcoord-buffer-0-mesh-0",
      "type": "VEC2"
    },
    {
      "bufferView": 3,
      "byteOffset": 0,
      "componentType": 5126,
      "count": 0,
      "max": [
        0.0,
        0.0,
        0.0,
        0.0
      ],
      "min": [
        0.0,
        0.0,
        0.0,
        0.0
      ],
      "name": "buffer-0-accessor-color-buffer-0-mesh-0",
      "type": "VEC4"
    },
    {
      "bufferView": 0,
      "byteOffset": 2880,
      "componentType": 5123,
      "count": 96,
      "max": [
        95.0
      ],
      "min": [
        0.0
      ],
      "name": "buffer-0-accessor-indices-buffer-0-mesh-0",
      "type": "SCALAR"
    },
    {
      "bufferView": 2,
      "byteOffset": 34560,
      "componentType": 5126,
      "count": 96,
      "max": [
        0.5988050103187561,
        9.867839813232422,
        0.0
      ],
      "min": [
        -0.5758209824562073,
        0.0,
        -1.0331380367279053
      ],
      "name": "buffer-0-accessor-position-buffer-0-mesh-0",
      "type": "VEC3"
    },
    {
      "bufferView": 2,
      "byteOffset": 35712,
      "componentType": 5126,
      "count": 96,
      "max": [
        0.9945999979972839,
        0.9975000023841858,
        0.13369999825954437
      ],
      "min": [
        -0.9957000017166138,
        -0.9502000212669373,
        -0.9925000071525574
      ],
      "name": "buffer-0-accessor-normal-buffer-0-mesh-0",
      "type": "VEC3"
    },
    {
      "bufferView": 1,
      "byteOffset": 0,
      "componentType": 5126,
      "count": 0,
      "max": [
        0.0,
        0.0
      ],
      "min": [
        0.0,
        0.0
      ],
      "name": "buffer-0-accessor-texcoord-buffer-0-mesh-0",
      "type": "VEC2"
    },
    {
      "bufferView": 3,
      "byteOffset": 0,
      "componentType": 5126,
      "count": 0,
      "max": [
        0.0,
        0.0,
        0.0,
        0.0
      ],
      "min": [
        0.0,
        0.0,
        0.0,
        0.0
      ],
      "name": "buffer-0-accessor-color-buffer-0-mesh-0",
      "type": "VEC4"
    }
  ],
  "asset": {
    "generator": "Obj2GltfConverter",
    "version": "2.0"
  },
  "bufferViews": [
    {
      "buffer": 0,
      "byteLength": 3072,
      "byteOffset": 0,
      "byteStride": 0,
      "name": "buffer-0-bufferview-ushort",
      "target": 34963
    },
    {
      "buffer": 0,
      "byteLength": 0,
      "byteOffset": 3072,
      "byteStride": 8,
      "name": "buffer-0-bufferview-vec2",
      "target": 34962
    },
    {
      "buffer": 0,
      "byteLength": 36864,
      "byteOffset": 3072,
      "byteStride": 12,
      "name": "buffer-0-bufferview-vec3",
      "target": 34962
    },
    {
      "buffer": 0,
      "byteLength": 0,
      "byteOffset": 39936,
      "byteStride": 16,
      "name": "buffer-0-bufferview-vec4",
      "target": 34962
    }
  ],
  "buffers": [
    {
      "byteLength": 39936,
      "name": "buffer-0",
      "uri": "Kangaroo_01.bin"
    }
  ],
  "materials": [
    {
      "alphaMode": "OPAQUE",
      "doubleSided": true,
      "name": "DD9944",
      "pbrMetallicRoughness": {
        "baseColorFactor": [
          0.866667,
          0.6,
          0.266667,
          1.0
        ],
        "metallicFactor": 0.0,
        "roughnessFactor": 0.7448017359246658
      }
    },
    {
      "alphaMode": "OPAQUE",
      "doubleSided": true,
      "name": "1A1A1A",
      "pbrMetallicRoughness": {
        "baseColorFactor": [
          0.101961,
          0.101961,
          0.101961,
          1.0
        ],
        "metallicFactor": 0.0,
        "roughnessFactor": 0.7448017359246658
      }
    },
    {
      "alphaMode": "OPAQUE",
      "doubleSided": true,
      "name": "FFCC88",
      "pbrMetallicRoughness": {
        "baseColorFactor": [
          1.0,
          0.8,
          0.533333,
          1.0
        ],
        "metallicFactor": 0.0,
        "roughnessFactor": 0.7448017359246658
      }
    },
    {
      "alphaMode": "OPAQUE",
      "doubleSided": true,
      "name": "F8BBD0",
      "pbrMetallicRoughness": {
        "baseColorFactor": [
          0.972549,
          0.733333,
          0.815686,
          1.0
        ],
        "metallicFactor": 0.0,
        "roughnessFactor": 0.7448017359246658
      }
    }
  ],
  "meshes": [
    {
      "name": "buffer-0-mesh-0",
      "primitives": [
        {
          "attributes": {
            "POSITION": 1,
            "NORMAL": 2,
            "TEXCOORD_0": 3
          },
          "indices": 0,
          "material": 0,
          "mode": 4
        },
        {
          "attributes": {
            "POSITION": 6,
            "NORMAL": 7,
            "TEXCOORD_0": 8
          },
          "indices": 5,
          "material": 1,
          "mode": 4
        },
        {
          "attributes": {
            "POSITION": 11,
            "NORMAL": 12,
            "TEXCOORD_0": 13
          },
          "indices": 10,
          "material": 2,
          "mode": 4
        },
        {
          "attributes": {
            "POSITION": 16,
            "NORMAL": 17,
            "TEXCOORD_0": 18
          },
          "indices": 15,
          "material": 3,
          "mode": 4
        }
      ]
    }
  ],
  "nodes": [
    {
      "mesh": 0,
      "name": "node-0"
    }
  ],
  "scenes": [
    {
      "name": "scene-0",
      "nodes": [
        0
      ]
    }
  ]
}